<mxfile host="app.diagrams.net" modified="2022-06-01T03:59:40.569Z" agent="5.0 (Macintosh; Intel Mac OS X 10_15_7) AppleWebKit/537.36 (KHTML, like Gecko) Chrome/98.0.4758.102 Safari/537.36" etag="JlNVMQv2pqIxcU8nBvvZ" version="18.1.3" type="github">
  <diagram id="C5RBs43oDa-KdzZeNtuy" name="Page-1">
    <mxGraphModel dx="1589" dy="893" grid="1" gridSize="10" guides="1" tooltips="1" connect="1" arrows="1" fold="1" page="1" pageScale="1" pageWidth="1200" pageHeight="1600" math="0" shadow="0">
      <root>
        <mxCell id="WIyWlLk6GJQsqaUBKTNV-0" />
        <mxCell id="WIyWlLk6GJQsqaUBKTNV-1" parent="WIyWlLk6GJQsqaUBKTNV-0" />
        <mxCell id="UYnG1CEKV5D8rUGRAQ1S-6" style="edgeStyle=orthogonalEdgeStyle;rounded=0;orthogonalLoop=1;jettySize=auto;html=1;" edge="1" parent="WIyWlLk6GJQsqaUBKTNV-1" source="UYnG1CEKV5D8rUGRAQ1S-1" target="UYnG1CEKV5D8rUGRAQ1S-5">
          <mxGeometry relative="1" as="geometry" />
        </mxCell>
        <mxCell id="UYnG1CEKV5D8rUGRAQ1S-1" value="client A" style="shape=umlActor;verticalLabelPosition=bottom;verticalAlign=top;html=1;outlineConnect=0;" vertex="1" parent="WIyWlLk6GJQsqaUBKTNV-1">
          <mxGeometry x="170" y="50" width="30" height="60" as="geometry" />
        </mxCell>
        <mxCell id="UYnG1CEKV5D8rUGRAQ1S-4" value="client B" style="shape=umlActor;verticalLabelPosition=bottom;verticalAlign=top;html=1;outlineConnect=0;" vertex="1" parent="WIyWlLk6GJQsqaUBKTNV-1">
          <mxGeometry x="560" y="50" width="30" height="60" as="geometry" />
        </mxCell>
        <mxCell id="UYnG1CEKV5D8rUGRAQ1S-9" value="" style="edgeStyle=orthogonalEdgeStyle;rounded=0;orthogonalLoop=1;jettySize=auto;html=1;" edge="1" parent="WIyWlLk6GJQsqaUBKTNV-1" source="UYnG1CEKV5D8rUGRAQ1S-5" target="UYnG1CEKV5D8rUGRAQ1S-8">
          <mxGeometry relative="1" as="geometry" />
        </mxCell>
        <mxCell id="UYnG1CEKV5D8rUGRAQ1S-5" value="gatway" style="rounded=0;whiteSpace=wrap;html=1;" vertex="1" parent="WIyWlLk6GJQsqaUBKTNV-1">
          <mxGeometry x="140" y="230" width="250" height="40" as="geometry" />
        </mxCell>
        <mxCell id="UYnG1CEKV5D8rUGRAQ1S-24" style="edgeStyle=orthogonalEdgeStyle;rounded=0;orthogonalLoop=1;jettySize=auto;html=1;" edge="1" parent="WIyWlLk6GJQsqaUBKTNV-1" source="UYnG1CEKV5D8rUGRAQ1S-8">
          <mxGeometry relative="1" as="geometry">
            <mxPoint x="265.0000000000002" y="510" as="targetPoint" />
          </mxGeometry>
        </mxCell>
        <mxCell id="UYnG1CEKV5D8rUGRAQ1S-8" value="chat server" style="whiteSpace=wrap;html=1;rounded=0;" vertex="1" parent="WIyWlLk6GJQsqaUBKTNV-1">
          <mxGeometry x="205" y="340" width="120" height="60" as="geometry" />
        </mxCell>
        <mxCell id="UYnG1CEKV5D8rUGRAQ1S-18" value="" style="shape=link;html=1;rounded=0;width=40.76923076923077;startArrow=none;" edge="1" parent="WIyWlLk6GJQsqaUBKTNV-1" source="UYnG1CEKV5D8rUGRAQ1S-19">
          <mxGeometry width="100" relative="1" as="geometry">
            <mxPoint x="90" y="529.62" as="sourcePoint" />
            <mxPoint x="480" y="529.62" as="targetPoint" />
          </mxGeometry>
        </mxCell>
        <mxCell id="UYnG1CEKV5D8rUGRAQ1S-29" style="edgeStyle=orthogonalEdgeStyle;rounded=0;orthogonalLoop=1;jettySize=auto;html=1;" edge="1" parent="WIyWlLk6GJQsqaUBKTNV-1" source="UYnG1CEKV5D8rUGRAQ1S-19" target="UYnG1CEKV5D8rUGRAQ1S-28">
          <mxGeometry relative="1" as="geometry" />
        </mxCell>
        <mxCell id="UYnG1CEKV5D8rUGRAQ1S-30" style="edgeStyle=orthogonalEdgeStyle;rounded=0;orthogonalLoop=1;jettySize=auto;html=1;" edge="1" parent="WIyWlLk6GJQsqaUBKTNV-1" source="UYnG1CEKV5D8rUGRAQ1S-19" target="UYnG1CEKV5D8rUGRAQ1S-25">
          <mxGeometry relative="1" as="geometry">
            <Array as="points">
              <mxPoint x="265" y="600" />
              <mxPoint x="130" y="600" />
            </Array>
          </mxGeometry>
        </mxCell>
        <mxCell id="UYnG1CEKV5D8rUGRAQ1S-19" value="MQ" style="text;html=1;align=center;verticalAlign=middle;resizable=0;points=[];autosize=1;strokeColor=none;fillColor=none;" vertex="1" parent="WIyWlLk6GJQsqaUBKTNV-1">
          <mxGeometry x="245" y="520" width="40" height="20" as="geometry" />
        </mxCell>
        <mxCell id="UYnG1CEKV5D8rUGRAQ1S-23" value="" style="shape=link;html=1;rounded=0;width=40.76923076923077;endArrow=none;" edge="1" parent="WIyWlLk6GJQsqaUBKTNV-1" target="UYnG1CEKV5D8rUGRAQ1S-19">
          <mxGeometry width="100" relative="1" as="geometry">
            <mxPoint x="90.00000000000023" y="529.6199999999999" as="sourcePoint" />
            <mxPoint x="480" y="529.6199999999999" as="targetPoint" />
          </mxGeometry>
        </mxCell>
        <mxCell id="UYnG1CEKV5D8rUGRAQ1S-25" value="mongodb&lt;br&gt;offline msg&lt;br&gt;" style="shape=cylinder3;whiteSpace=wrap;html=1;boundedLbl=1;backgroundOutline=1;size=15;" vertex="1" parent="WIyWlLk6GJQsqaUBKTNV-1">
          <mxGeometry x="90" y="640" width="80" height="90" as="geometry" />
        </mxCell>
        <mxCell id="UYnG1CEKV5D8rUGRAQ1S-28" value="redis&lt;br&gt;msq seq" style="shape=cylinder3;whiteSpace=wrap;html=1;boundedLbl=1;backgroundOutline=1;size=15;" vertex="1" parent="WIyWlLk6GJQsqaUBKTNV-1">
          <mxGeometry x="225" y="640" width="80" height="90" as="geometry" />
        </mxCell>
      </root>
    </mxGraphModel>
  </diagram>
</mxfile>
